<svg id="Layer_1" data-name="Layer 1" xmlns="http://www.w3.org/2000/svg" viewBox="0 0 45 45"><defs><style>.cls-1{stroke:#fff;stroke-miterlimit:10;stroke-width:0.43px;}</style></defs><title>Artboard 1</title><path class="cls-1" d="M39.06,22.19H3.51a2.86,2.86,0,0,1-.77-.06,1.26,1.26,0,0,1-.87-1.4A1.25,1.25,0,0,1,3,19.63c.2,0,.4,0,.59,0H39.74S32.41,12.33,29,8.88a1.26,1.26,0,0,1-.2-1.64,1.24,1.24,0,0,1,1.58-.48,1.33,1.33,0,0,1,.41.29L43.59,19.88a1.28,1.28,0,0,1,0,2l-13,13A1.29,1.29,0,0,1,28.7,35a1.31,1.31,0,0,1,.07-1.91l11-10.9Z"/></svg>