<svg id="Layer_1" data-name="Layer 1" xmlns="http://www.w3.org/2000/svg" viewBox="0 0 77.73 59.59"><defs><style>.cls-1{stroke:#fff;stroke-miterlimit:10;stroke-width:0.71px;}</style></defs><title>nf3arrow</title><path class="cls-1" d="M59.1,37.06c-.13-.14-.21-.23-.3-.31L45.18,23.06A5.67,5.67,0,0,1,44,16.41a5.35,5.35,0,0,1,4.63-3.1,5.63,5.63,0,0,1,4.62,1.78Q65,26.84,76.75,38.55A5.68,5.68,0,0,1,78.56,43a5.6,5.6,0,0,1-1.45,3.5l-.39.41L53.29,70.37A5.79,5.79,0,0,1,50.57,72,5.52,5.52,0,0,1,45,70.38a5.7,5.7,0,0,1,.11-8Q51.46,56,57.82,49.7l1-1,.23-.26H7.46A6,6,0,0,1,3.68,47.2,5.67,5.67,0,0,1,7.17,37.06c.12,0,.24,0,.36,0H59.1Z" transform="translate(-1.19 -12.93)"/></svg>